<svg xmlns="http://www.w3.org/2000/svg" viewBox="0 0 145.37 32"><defs><style>.a{fill:#363a36;}.b{fill:#1ccfc9;}.c{fill:#fff;}</style></defs><title>Recurso 102</title><path class="a" d="M39.76,14.18a7,7,0,0,0,1.11,2,3.53,3.53,0,0,0,2.77,1.32,2.33,2.33,0,0,0,1.55-.57,2,2,0,0,0,.65-1.59,2.2,2.2,0,0,0-.66-1.59,11.3,11.3,0,0,0-1.8-1.29l-1.6-1a6.09,6.09,0,0,1-1.15-.93,2.86,2.86,0,0,1-.8-2,3.2,3.2,0,0,1,1-2.36,3.34,3.34,0,0,1,2.49-1,4.81,4.81,0,0,1,1.54.32,7.13,7.13,0,0,0,1,.32.59.59,0,0,0,.48-.17,1.14,1.14,0,0,0,.21-.47h.38l.41,4h-.45a4.2,4.2,0,0,0-1.46-2.51,3.46,3.46,0,0,0-2-.72,2.06,2.06,0,0,0-1.34.46,1.51,1.51,0,0,0-.57,1.25A1.8,1.8,0,0,0,41.94,9a5.49,5.49,0,0,0,1.36,1.09l1.64,1a8.45,8.45,0,0,1,2.18,1.75,3,3,0,0,1,.62,1.9,3.16,3.16,0,0,1-1.11,2.46,4.09,4.09,0,0,1-2.84,1A5.45,5.45,0,0,1,42,17.87a7.64,7.64,0,0,0-1.08-.34.49.49,0,0,0-.45.21,1.38,1.38,0,0,0-.15.43h-.41l-.56-4Z"/><path class="a" d="M54.67,5.56v.35a2.56,2.56,0,0,0-1.4.36A1.87,1.87,0,0,0,53,7.59v6a5.44,5.44,0,0,0,.4,2.29,2.87,2.87,0,0,0,2.85,1.5,3.13,3.13,0,0,0,3.08-1.53,6.16,6.16,0,0,0,.44-2.65V8.31a3.14,3.14,0,0,0-.37-1.92A2.2,2.2,0,0,0,58,5.91V5.56H62.3v.35a2.19,2.19,0,0,0-1.42.52,3.3,3.3,0,0,0-.34,1.88v4.88a6.42,6.42,0,0,1-.59,3c-.74,1.33-2.12,2-4.17,2s-3.41-.66-4.13-2a5.67,5.67,0,0,1-.6-2.8V7.59a1.92,1.92,0,0,0-.31-1.31,2.43,2.43,0,0,0-1.38-.37V5.56Z"/><path class="a" d="M63,17.6a2.12,2.12,0,0,0,1.35-.42,2.69,2.69,0,0,0,.26-1.48V7.59a2,2,0,0,0-.3-1.3A2.17,2.17,0,0,0,63,5.91V5.56h5.19A7.73,7.73,0,0,1,70.85,6,2.85,2.85,0,0,1,72.9,8.83,2.62,2.62,0,0,1,72,11a5,5,0,0,1-2.47,1l3.86,4.75a2.57,2.57,0,0,0,.71.64,2.28,2.28,0,0,0,.91.25V18H72L67.3,12.18l-.82,0v3.7c0,.69.11,1.13.32,1.31a2.56,2.56,0,0,0,1.37.37V18H63Zm6.4-6.49a2.28,2.28,0,0,0,1.49-2.3,2.21,2.21,0,0,0-1.33-2.22,4.8,4.8,0,0,0-1.9-.31,2.59,2.59,0,0,0-1,.1q-.18.12-.18.54v4.62a9.81,9.81,0,0,0,2.89-.43"/><path class="a" d="M74.64,5.56H85.22l.1,3.18h-.45A3.71,3.71,0,0,0,84,6.79a3.39,3.39,0,0,0-2.12-.45h-1v9.58c0,.73.11,1.17.34,1.34a3.21,3.21,0,0,0,1.48.34V18H77.22V17.6a2.62,2.62,0,0,0,1.49-.39A2.5,2.5,0,0,0,79,15.7V6.34H78a3.55,3.55,0,0,0-2.12.45,3.25,3.25,0,0,0-.85,2h-.46Z"/><path class="a" d="M86.15,17.6a3.25,3.25,0,0,0,1.48-.34c.22-.17.33-.61.33-1.34V7.59a1.86,1.86,0,0,0-.33-1.33,2.68,2.68,0,0,0-1.48-.35V5.56h5.53v.35a2.68,2.68,0,0,0-1.48.35,1.86,1.86,0,0,0-.33,1.33v8.33c0,.73.11,1.17.33,1.34a3.25,3.25,0,0,0,1.48.34V18H86.15Z"/><path class="a" d="M92.51,17.6a2.65,2.65,0,0,0,1.34-.37c.2-.17.31-.61.31-1.31V7.59a1.93,1.93,0,0,0-.3-1.31,2.28,2.28,0,0,0-1.35-.37V5.56h5a9.84,9.84,0,0,1,4.32.85,5.43,5.43,0,0,1,3.18,5.38,6.44,6.44,0,0,1-.57,2.67,5.62,5.62,0,0,1-1.72,2.13,6.2,6.2,0,0,1-1.53.83,10.27,10.27,0,0,1-3.52.53H92.51Zm3.77-.49a2.09,2.09,0,0,0,.93.14,6.77,6.77,0,0,0,3.61-.86A5,5,0,0,0,103,11.82a5.28,5.28,0,0,0-1.79-4.34,6.28,6.28,0,0,0-4.07-1.24,1.91,1.91,0,0,0-.86.13.69.69,0,0,0-.22.6v9.54a.7.7,0,0,0,.22.6"/><path class="a" d="M108.31,7a6.27,6.27,0,0,1,8.51,0,6.35,6.35,0,0,1,1.88,4.8,6.29,6.29,0,0,1-1.94,4.84,5.94,5.94,0,0,1-4.2,1.62,5.86,5.86,0,0,1-4.37-1.79,6.45,6.45,0,0,1-1.76-4.67A6.39,6.39,0,0,1,108.31,7m1.4,9.18a3.61,3.61,0,0,0,5.69,0,6.69,6.69,0,0,0,1.18-4.4,6.67,6.67,0,0,0-1.2-4.43A3.64,3.64,0,0,0,112.57,6a3.6,3.6,0,0,0-2.86,1.41,6.88,6.88,0,0,0-1.16,4.38,6.83,6.83,0,0,0,1.16,4.37"/><path class="a" d="M119.74,17.6a2.09,2.09,0,0,0,1.34-.42,2.57,2.57,0,0,0,.27-1.48V7.59a2,2,0,0,0-.3-1.3,2.17,2.17,0,0,0-1.31-.38V5.56h5.18a7.75,7.75,0,0,1,2.7.41,2.86,2.86,0,0,1,2,2.86,2.65,2.65,0,0,1-.91,2.15,5,5,0,0,1-2.48,1l3.87,4.75a2.41,2.41,0,0,0,.7.64,2.33,2.33,0,0,0,.92.25V18h-3l-4.68-5.77-.82,0v3.7c0,.69.1,1.13.31,1.31a2.57,2.57,0,0,0,1.38.37V18h-5.2Zm6.39-6.49a2.27,2.27,0,0,0,1.5-2.3,2.22,2.22,0,0,0-1.34-2.22,4.75,4.75,0,0,0-1.89-.31,2.56,2.56,0,0,0-1,.1c-.13.08-.18.26-.18.54v4.62a9.66,9.66,0,0,0,2.88-.43"/><path class="a" d="M132.43,18V17.6a1.56,1.56,0,0,0,1.08-.54,15.27,15.27,0,0,0,1.24-2.54l3.9-9.18H139L143.69,16a4.44,4.44,0,0,0,.74,1.3,1.77,1.77,0,0,0,.94.34V18h-4.76V17.6a3.88,3.88,0,0,0,1.06-.18c.15-.07.23-.24.23-.51a1.7,1.7,0,0,0-.09-.48,5.28,5.28,0,0,0-.25-.73l-.75-1.81h-4.94q-.72,1.84-.87,2.25a2.25,2.25,0,0,0-.14.64.67.67,0,0,0,.38.66,3,3,0,0,0,.9.16V18Zm8.06-4.81L138.35,8l-2.16,5.16Z"/><path class="a" d="M39.09,21.26h1.59a2.5,2.5,0,0,1,2.73,2.66,2.45,2.45,0,0,1-2.7,2.67H39.09Zm.59,4.81h1.06a1.93,1.93,0,0,0,2.08-2.13,2.27,2.27,0,0,0-.52-1.55,2,2,0,0,0-1.56-.6H39.68Z"/><polygon class="a" points="48.35 21.26 51.3 21.26 51.3 21.79 48.94 21.79 48.94 23.64 51.29 23.64 51.29 24.17 48.94 24.17 48.94 26.07 51.3 26.07 51.3 26.59 48.35 26.59 48.35 21.26"/><path class="a" d="M57.72,21.26a2.12,2.12,0,0,1,1.43.34,1.61,1.61,0,0,1,.57,1.27,1.65,1.65,0,0,1-.54,1.26,2,2,0,0,1-1.41.36h-.86v2.1h-.59V21.26ZM56.91,24h.85a1.62,1.62,0,0,0,1-.23,1,1,0,0,0,.4-.86,1.05,1.05,0,0,0-.4-.87,1.71,1.71,0,0,0-1-.22h-.84Z"/><path class="a" d="M64,26.59h-.64l2.22-5.33h.58l2.2,5.33h-.65l-.62-1.5H64.64Zm1.85-4.66L64.82,24.6h2.12Z"/><path class="a" d="M73.05,21.26h1.39a2.8,2.8,0,0,1,1.5.27A1.84,1.84,0,0,1,76.35,24a1.49,1.49,0,0,1-1.19.59l1.32,2h-.64l-1.51-2.32h.17A1.82,1.82,0,0,0,75.69,24a1.3,1.3,0,0,0,.4-1,1.26,1.26,0,0,0-.53-1,1.94,1.94,0,0,0-1.08-.19h-.83v4.8h-.6Z"/><polygon class="a" points="82.27 21.79 80.96 21.79 80.96 21.26 84.19 21.26 84.19 21.79 82.87 21.79 82.87 26.59 82.27 26.59 82.27 21.79"/><path class="a" d="M88.5,26.59h-.64l2.22-5.33h.58l2.2,5.33h-.65l-.61-1.5H89.11Zm1.85-4.66L89.29,24.6h2.13Z"/><polygon class="a" points="97.57 26.59 97.57 21.26 98.41 21.26 100.38 25.73 102.35 21.26 103.18 21.26 103.18 26.59 102.62 26.59 102.63 21.86 100.57 26.59 100.18 26.59 98.11 21.86 98.12 26.59 97.57 26.59"/><polygon class="a" points="108.36 21.26 111.32 21.26 111.32 21.79 108.95 21.79 108.95 23.64 111.3 23.64 111.3 24.17 108.95 24.17 108.95 26.07 111.32 26.07 111.32 26.59 108.36 26.59 108.36 21.26"/><polygon class="a" points="120.1 25.71 120.1 21.26 120.67 21.26 120.67 26.59 120.1 26.59 116.94 22.1 116.95 26.59 116.37 26.59 116.37 21.26 116.98 21.26 120.1 25.71"/><polygon class="a" points="126.69 21.79 125.38 21.79 125.38 21.26 128.6 21.26 128.6 21.79 127.28 21.79 127.28 26.59 126.69 26.59 126.69 21.79"/><path class="a" d="M132.91,26.59h-.64l2.23-5.33h.58l2.2,5.33h-.65l-.62-1.5h-2.48Zm1.86-4.66-1.06,2.67h2.12Z"/><polygon class="a" points="141.99 21.26 142.59 21.26 142.59 26.07 144.62 26.07 144.62 26.59 141.99 26.59 141.99 21.26"/><path class="b" d="M0,32H32.38V0H0ZM23.43,3.54a2.6,2.6,0,0,1-.14.46s-3.1,7.54-7.1,7.54S9.09,4,9.09,4a2.71,2.71,0,0,1-.15-.46A.56.56,0,0,1,8.48,3,.55.55,0,0,1,9,2.44.54.54,0,0,1,9.59,3a.52.52,0,0,1-.13.36A3.32,3.32,0,0,1,9.81,4s2.77,6.81,6.38,6.81S22.56,4,22.56,4a4.45,4.45,0,0,1,.36-.66A.51.51,0,0,1,22.8,3a.54.54,0,0,1,.55-.55.55.55,0,0,1,.08,1.1"/><path class="c" d="M27.59,17.84a6,6,0,0,0-1.49-1.58,7.26,7.26,0,0,0-2.17-1.1c-.28-.09-.56-.17-.81-.23s-.52-.11-.8-.15l-.9-.07-1.12,0H13.69V15H16V29H13.69v.29H20.3V29H18V15h2.26a7.31,7.31,0,0,1,2.9.51,4.66,4.66,0,0,1,1.87,1.44,5.83,5.83,0,0,1,1,2.24,12.67,12.67,0,0,1,.31,2.93,11.73,11.73,0,0,1-.25,2.53,7.92,7.92,0,0,1-.92,2.26,3.58,3.58,0,0,1-.31.45,4.77,4.77,0,0,1-3.07,2c.3,0,.59,0,.85-.06a8.43,8.43,0,0,0,.9-.19,6.08,6.08,0,0,0,.94-.35,6.88,6.88,0,0,0,1.65-1,6.37,6.37,0,0,0,1.07-1.07,3,3,0,0,0,.27-.35A6.78,6.78,0,0,0,28.19,25l.07-.19c0-.13.1-.27.14-.4a7.78,7.78,0,0,0,.3-1.62c0-.26,0-.52,0-.81a8.55,8.55,0,0,0-.28-2.22,6.39,6.39,0,0,0-.86-2"/><path class="c" d="M13.29,23.39a3.48,3.48,0,0,0-1-1.08l-.05,0a4.22,4.22,0,0,0-1.11-.58l-1-.33-2.48-.77c-.36-.12-.71-.24-1.06-.39a4.38,4.38,0,0,1-1-.53A2.68,2.68,0,0,1,5,18.89a2.19,2.19,0,0,1-.27-1.12,2.55,2.55,0,0,1,.34-1.35,2.79,2.79,0,0,1,.85-.86,3.39,3.39,0,0,1,1.11-.46h0A5.18,5.18,0,0,1,8.14,15a3.5,3.5,0,0,1,2.68,1.16A9.21,9.21,0,0,1,12.26,19V14.85a.88.88,0,0,1-.91.63,1.58,1.58,0,0,1-.56-.13c-.19-.07-.39-.17-.62-.28a6,6,0,0,0-.84-.27,4.9,4.9,0,0,0-1.19-.13,5.43,5.43,0,0,0-1.09.12,6.14,6.14,0,0,0-.73.22,4.15,4.15,0,0,0-.6.29,3.8,3.8,0,0,0-.82.61A4,4,0,0,0,4,17.27,4.38,4.38,0,0,0,3.65,19a3,3,0,0,0,.85,2.26A6.11,6.11,0,0,0,7,22.6l2.36.71a6.21,6.21,0,0,1,.91.35,3.68,3.68,0,0,1,.89.58,3.09,3.09,0,0,1,.68.87c0,.06.05.11.07.17a3.52,3.52,0,0,1-.58,4,5.51,5.51,0,0,0,2-2.34,4.79,4.79,0,0,0,.36-1.84,3.32,3.32,0,0,0-.4-1.72"/></svg>